<?xml version="1.0" encoding="UTF-8" standalone="no"?>
<svg
   xmlns:dc="http://purl.org/dc/elements/1.1/"
   xmlns:cc="http://creativecommons.org/ns#"
   xmlns:rdf="http://www.w3.org/1999/02/22-rdf-syntax-ns#"
   xmlns:svg="http://www.w3.org/2000/svg"
   xmlns="http://www.w3.org/2000/svg"
   version="1.1"
   id="Capa_1"
   x="0px"
   y="0px"
   viewBox="0 0 268.476 268.476"
   style="enable-background:new 0 0 268.476 268.476;"
   xml:space="preserve"
   width="512px"
   height="512px"><metadata
     id="metadata893"><rdf:RDF><cc:Work
         rdf:about=""><dc:format>image/svg+xml</dc:format><dc:type
           rdf:resource="http://purl.org/dc/dcmitype/StillImage" /><dc:title></dc:title></cc:Work></rdf:RDF></metadata><defs
     id="defs891" /><g
     id="Download"
     style="fill:#ffffff;fill-opacity:1"><path
       style="fill-rule:evenodd;clip-rule:evenodd;fill:#ffffff;fill-opacity:1"
       d="M232.943,223.73H35.533c-12.21,0-22.109,10.017-22.109,22.373   c0,12.356,9.9,22.373,22.109,22.373h197.41c12.21,0,22.109-10.017,22.109-22.373C255.052,233.747,245.153,223.73,232.943,223.73z    M117.881,199.136c4.034,4.041,9.215,6.147,14.491,6.508c0.626,0.053,1.227,0.188,1.866,0.188c0.633,0,1.228-0.135,1.847-0.186   c5.284-0.357,10.473-2.464,14.512-6.51l70.763-70.967c8.861-8.875,8.861-23.267,0-32.142c-8.86-8.876-23.225-8.876-32.086,0   l-32.662,32.756V22.373C156.612,10.017,146.596,0,134.238,0c-12.356,0-22.372,10.017-22.372,22.373v106.41L79.204,96.027   c-8.86-8.876-23.226-8.876-32.086,0c-8.86,8.875-8.86,23.267,0,32.142L117.881,199.136z"
       fill="#91DC5A"
       id="path855" /></g><g
     id="g858" /><g
     id="g860" /><g
     id="g862" /><g
     id="g864" /><g
     id="g866" /><g
     id="g868" /><g
     id="g870" /><g
     id="g872" /><g
     id="g874" /><g
     id="g876" /><g
     id="g878" /><g
     id="g880" /><g
     id="g882" /><g
     id="g884" /><g
     id="g886" /></svg>