<?xml version="1.0" encoding="UTF-8" standalone="no"?>
<svg
   xmlns:dc="http://purl.org/dc/elements/1.1/"
   xmlns:cc="http://creativecommons.org/ns#"
   xmlns:rdf="http://www.w3.org/1999/02/22-rdf-syntax-ns#"
   xmlns:svg="http://www.w3.org/2000/svg"
   xmlns="http://www.w3.org/2000/svg"
   xmlns:sodipodi="http://sodipodi.sourceforge.net/DTD/sodipodi-0.dtd"
   xmlns:inkscape="http://www.inkscape.org/namespaces/inkscape"
   xml:space="preserve"
   style="enable-background:new 0 0 54.888 54.888;"
   viewBox="0 0 54.888 54.888"
   y="0px"
   x="0px"
   id="Capa_1"
   version="1.1"
   sodipodi:docname="multimedia.svg"
   inkscape:version="0.92.2 (5c3e80d, 2017-08-06)"><sodipodi:namedview
     pagecolor="#ffffff"
     bordercolor="#666666"
     borderopacity="1"
     objecttolerance="10"
     gridtolerance="10"
     guidetolerance="10"
     inkscape:pageopacity="0"
     inkscape:pageshadow="2"
     inkscape:window-width="1920"
     inkscape:window-height="1017"
     id="namedview1829"
     showgrid="false"
     inkscape:zoom="8.5993295"
     inkscape:cx="17.176608"
     inkscape:cy="19.316105"
     inkscape:window-x="-8"
     inkscape:window-y="-8"
     inkscape:window-maximized="1"
     inkscape:current-layer="Capa_1" /><metadata
     id="metadata930"><rdf:RDF><cc:Work
         rdf:about=""><dc:format>image/svg+xml</dc:format><dc:type
           rdf:resource="http://purl.org/dc/dcmitype/StillImage" /><dc:title /></cc:Work></rdf:RDF></metadata><defs
     id="defs928" /><g
     id="g895" /><g
     id="g897" /><g
     id="g899" /><g
     id="g901" /><g
     id="g903" /><g
     id="g905" /><g
     id="g907" /><g
     id="g909" /><g
     id="g911" /><g
     id="g913" /><g
     id="g915" /><g
     id="g917" /><g
     id="g919" /><g
     id="g921" /><g
     id="g923" /><g
     style="fill:#ffffff"
     transform="matrix(1.272426,0,0,1.272426,-1.181489,-12.387141)"
     id="g1087"><path
       style="fill:#ffffff;stroke-width:0.52083915"
       d="m 41.618897,24.401674 c -0.112501,-0.09844 -0.260941,-0.143231 -0.410942,-0.125522 l -16.146014,2.089086 c -0.259899,0.03385 -0.454172,0.25469 -0.454172,0.516672 v 3.133889 2.193775 13.560047 c -0.904698,-1.036469 -2.315651,-1.705748 -3.905773,-1.705748 -2.732843,0 -4.947972,1.969293 -4.947972,4.397966 0,2.428673 2.215129,4.397966 4.947972,4.397966 2.732843,0 4.947972,-1.969293 4.947972,-4.397966 0,-0.172919 -0.01406,-0.342712 -0.03594,-0.510943 0.02083,-0.05625 0.03594,-0.115106 0.03594,-0.178648 V 32.666871 l 15.104336,-1.95471 v 9.848548 c -0.905219,-1.035949 -2.316172,-1.705227 -3.906294,-1.705227 -2.732843,0 -4.947972,1.969292 -4.947972,4.397965 0,2.428673 2.215129,4.397966 4.947972,4.397966 2.732843,0 4.947972,-1.969293 4.947972,-4.397966 0,-0.04792 -0.0063,-0.09427 -0.0078,-0.141668 10e-4,-0.01406 0.0078,-0.02604 0.0078,-0.0401 V 30.119446 27.926193 24.792824 c 0,-0.150002 -0.06458,-0.292712 -0.177085,-0.39115 z"
       id="path893"
       inkscape:connector-curvature="0" /><g
       style="fill:#ffffff"
       id="g1065"
       transform="matrix(0.55357686,0,0,0.55357686,3.1975803,6.4253474)"><path
         style="fill:#ffffff"
         id="path1010"
         d="M 57,6 H 1 C 0.448,6 0,6.447 0,7 v 44 c 0,0.553 0.448,1 1,1 h 56 c 0.552,0 1,-0.447 1,-1 V 7 C 58,6.447 57.552,6 57,6 Z M 10,50 H 2 v -9 h 8 z M 10,39 H 2 v -9 h 8 z M 10,28 H 2 v -9 h 8 z M 10,17 H 2 V 8 h 8 z m 26.537,12.844 -11,7 C 25.374,36.947 25.187,37 25,37 24.834,37 24.669,36.959 24.519,36.877 24.199,36.701 24,36.365 24,36 V 22 c 0,-0.365 0.199,-0.701 0.519,-0.877 0.32,-0.175 0.71,-0.162 1.019,0.033 l 11,7 C 36.825,28.34 37,28.658 37,29 c 0,0.342 -0.175,0.66 -0.463,0.844 z M 56,50 h -8 v -9 h 8 z m 0,-11 h -8 v -9 h 8 z m 0,-11 h -8 v -9 h 8 z M 56,17 H 48 V 8 h 8 z"
         inkscape:connector-curvature="0" /><g
         style="fill:#ffffff"
         id="g1012" /><g
         style="fill:#ffffff"
         id="g1014" /><g
         style="fill:#ffffff"
         id="g1016" /><g
         style="fill:#ffffff"
         id="g1018" /><g
         style="fill:#ffffff"
         id="g1020" /><g
         style="fill:#ffffff"
         id="g1022" /><g
         style="fill:#ffffff"
         id="g1024" /><g
         style="fill:#ffffff"
         id="g1026" /><g
         style="fill:#ffffff"
         id="g1028" /><g
         style="fill:#ffffff"
         id="g1030" /><g
         style="fill:#ffffff"
         id="g1032" /><g
         style="fill:#ffffff"
         id="g1034" /><g
         style="fill:#ffffff"
         id="g1036" /><g
         style="fill:#ffffff"
         id="g1038" /><g
         style="fill:#ffffff"
         id="g1040" /></g></g></svg>