<?xml version="1.0" encoding="UTF-8" standalone="no"?>
<!-- Generator: Adobe Illustrator 19.1.0, SVG Export Plug-In . SVG Version: 6.00 Build 0)  -->

<svg
   xmlns:dc="http://purl.org/dc/elements/1.1/"
   xmlns:cc="http://creativecommons.org/ns#"
   xmlns:rdf="http://www.w3.org/1999/02/22-rdf-syntax-ns#"
   xmlns:svg="http://www.w3.org/2000/svg"
   xmlns="http://www.w3.org/2000/svg"
   xmlns:sodipodi="http://sodipodi.sourceforge.net/DTD/sodipodi-0.dtd"
   xmlns:inkscape="http://www.inkscape.org/namespaces/inkscape"
   version="1.1"
   id="Capa_1"
   x="0px"
   y="0px"
   viewBox="0 0 529.286 529.286"
   style="enable-background:new 0 0 529.286 529.286;"
   xml:space="preserve"
   sodipodi:docname="power.svg"
   inkscape:version="0.92.2 (5c3e80d, 2017-08-06)"><metadata
     id="metadata2343"><rdf:RDF><cc:Work
         rdf:about=""><dc:format>image/svg+xml</dc:format><dc:type
           rdf:resource="http://purl.org/dc/dcmitype/StillImage" /></cc:Work></rdf:RDF></metadata><defs
     id="defs2341" /><sodipodi:namedview
     pagecolor="#ffffff"
     bordercolor="#666666"
     borderopacity="1"
     objecttolerance="10"
     gridtolerance="10"
     guidetolerance="10"
     inkscape:pageopacity="0"
     inkscape:pageshadow="2"
     inkscape:window-width="1920"
     inkscape:window-height="1017"
     id="namedview2339"
     showgrid="false"
     inkscape:zoom="0.44588369"
     inkscape:cx="264.64301"
     inkscape:cy="264.64301"
     inkscape:window-x="-8"
     inkscape:window-y="-8"
     inkscape:window-maximized="1"
     inkscape:current-layer="Capa_1" /><g
     id="g2306"
     style="fill:#ffffff"><g
       id="g2274"
       style="fill:#ffffff"><g
         id="g2272"
         style="fill:#ffffff"><path
           d="M358.099,74.604c0,0-28.097-12.644-28.097,16.896s27.837,49.363,28.19,49.3c49.147,32.081,81.629,87.559,81.629,150.629     c0,97.746-78.016,177.269-175.177,179.7c-97.161-2.431-175.177-81.954-175.177-179.7c0-63.071,32.483-118.547,81.629-150.629     c0.353,0.063,28.189-19.761,28.189-49.3s-28.097-16.896-28.097-16.896C88.7,111.958,31.31,194.983,31.31,291.429     c0,129.865,104.053,235.413,233.334,237.857c129.281-2.445,233.332-107.992,233.332-237.857     C497.977,194.983,440.587,111.958,358.099,74.604z"
           id="path2268"
           style="fill:#ffffff" /><path
           d="M266.278,0c-26.143,0-34.312,19.141-34.312,26.627v117.159v117.159c0,7.487,8.17,26.627,34.312,26.627     c26.143,0,31.045-19.141,31.045-26.627V143.786V26.627C297.322,19.14,292.421,0,266.278,0z"
           id="path2270"
           style="fill:#ffffff" /></g></g><g
       id="g2276"
       style="fill:#ffffff" /><g
       id="g2278"
       style="fill:#ffffff" /><g
       id="g2280"
       style="fill:#ffffff" /><g
       id="g2282"
       style="fill:#ffffff" /><g
       id="g2284"
       style="fill:#ffffff" /><g
       id="g2286"
       style="fill:#ffffff" /><g
       id="g2288"
       style="fill:#ffffff" /><g
       id="g2290"
       style="fill:#ffffff" /><g
       id="g2292"
       style="fill:#ffffff" /><g
       id="g2294"
       style="fill:#ffffff" /><g
       id="g2296"
       style="fill:#ffffff" /><g
       id="g2298"
       style="fill:#ffffff" /><g
       id="g2300"
       style="fill:#ffffff" /><g
       id="g2302"
       style="fill:#ffffff" /><g
       id="g2304"
       style="fill:#ffffff" /></g><g
     id="g2308" /><g
     id="g2310" /><g
     id="g2312" /><g
     id="g2314" /><g
     id="g2316" /><g
     id="g2318" /><g
     id="g2320" /><g
     id="g2322" /><g
     id="g2324" /><g
     id="g2326" /><g
     id="g2328" /><g
     id="g2330" /><g
     id="g2332" /><g
     id="g2334" /><g
     id="g2336" /></svg>