<?xml version="1.0" encoding="UTF-8" standalone="no"?>
<svg
   xmlns:dc="http://purl.org/dc/elements/1.1/"
   xmlns:cc="http://creativecommons.org/ns#"
   xmlns:rdf="http://www.w3.org/1999/02/22-rdf-syntax-ns#"
   xmlns:svg="http://www.w3.org/2000/svg"
   xmlns="http://www.w3.org/2000/svg"
   xmlns:sodipodi="http://sodipodi.sourceforge.net/DTD/sodipodi-0.dtd"
   xmlns:inkscape="http://www.inkscape.org/namespaces/inkscape"
   xml:space="preserve"
   style="enable-background:new 0 0 317.001 317.001;"
   viewBox="0 0 317.001 317.001"
   y="0px"
   x="0px"
   id="Capa_1"
   version="1.1"
   sodipodi:docname="ubuntu-debian.svg"
   inkscape:version="0.92.2 (5c3e80d, 2017-08-06)"><sodipodi:namedview
     pagecolor="#ffffff"
     bordercolor="#666666"
     borderopacity="1"
     objecttolerance="10"
     gridtolerance="10"
     guidetolerance="10"
     inkscape:pageopacity="0"
     inkscape:pageshadow="2"
     inkscape:window-width="1920"
     inkscape:window-height="1017"
     id="namedview2034"
     showgrid="false"
     inkscape:zoom="1.4889543"
     inkscape:cx="27.598055"
     inkscape:cy="78.485408"
     inkscape:window-x="-8"
     inkscape:window-y="-8"
     inkscape:window-maximized="1"
     inkscape:current-layer="Capa_1" /><metadata
     id="metadata3524"><rdf:RDF><cc:Work
         rdf:about=""><dc:format>image/svg+xml</dc:format><dc:type
           rdf:resource="http://purl.org/dc/dcmitype/StillImage" /><dc:title /></cc:Work></rdf:RDF></metadata><defs
     id="defs3522" /><g
     id="g3487"
     style="fill:#ffffff"
     transform="matrix(1.4260125,0,0,1.4260125,-74.543724,-79.785972)"><g
       style="fill:#ffffff"
       transform="translate(-0.94980267,27.544288)"
       id="g4252"><path
         style="fill:#ffffff"
         d="m 147.4578,102.07471 c 0.815,-0.636 1.554,-1.28 2.213,-1.906 -1.837,0.45 -3.707,0.46 -5.59,0.288 -2.259,0.031 0.428,1.164 3.377,1.618 z"
         id="path3451"
         inkscape:connector-curvature="0" /><path
         style="fill:#ffffff"
         d="m 156.2088,97.433706 c 1.345,-1.857 2.326,-3.89 2.672,-5.993 -0.302,1.499 -1.115,2.793 -1.881,4.158 -4.224,2.659 -0.397,-1.579 -0.002,-3.19 -4.543,5.717 -0.625,3.428 -0.789,5.025 z"
         id="path3453"
         inkscape:connector-curvature="0" /><path
         style="fill:#ffffff"
         d="m 160.6848,85.785706 c 0.273,-4.069 -0.801,-2.783 -1.162,-1.23 0.421,0.219 0.754,2.868 1.162,1.23 z"
         id="path3455"
         inkscape:connector-curvature="0" /><path
         style="fill:#ffffff"
         d="m 135.5128,30.170706 c 1.206,0.216 2.605,0.382 2.409,0.67 1.319,-0.289 1.619,-0.555 -2.409,-0.67 z"
         id="path3457"
         inkscape:connector-curvature="0" /><polygon
         style="fill:#ffffff"
         points="136.913,58.491 136.972,58.386 136.12,58.562 "
         id="polygon3459"
         transform="translate(0.94980323,-27.544294)" /><path
         style="fill:#ffffff"
         d="m 134.7858,115.02971 c -3.252,-1.523 -6.229,-3.821 -8.677,-6.635 1.299,1.901 2.701,3.75 4.513,5.202 -3.065,-1.039 -7.161,-7.429 -8.356,-7.689 5.285,9.462 21.441,16.594 29.901,13.055 -3.914,0.145 -8.887,0.08 -13.286,-1.545 -1.692,-0.871 -3.935,-2.592 -3.956,-3.159 -0.084,0.22 -0.226,0.44 -0.139,0.771 z"
         id="path3461"
         inkscape:connector-curvature="0" /><path
         style="fill:#ffffff"
         d="m 182.6238,60.543706 c 3.023,4.379 4.747,11.167 5.538,13.978 -0.604,-3.428 -1.579,-6.748 -2.77,-9.961 0.918,0.386 -1.479,-7.053 1.193,-2.126 -2.854,-10.502 -12.215,-20.314 -20.827,-24.919 1.054,0.964 2.384,2.175 1.906,2.365 -4.283,-2.55 -3.529,-2.749 -4.143,-3.826 -3.489,-1.42 -3.718,0.114 -6.029,0.003 -6.576,-3.488 -7.844,-3.117 -13.895,-5.302 l 0.275,1.286 c -4.357,-1.451 -5.076,0.551 -9.785,0.005 -0.287,-0.224 1.509,-0.81 2.986,-1.025 -4.212,0.556 -4.015,-0.83 -8.136,0.153 1.016,-0.713 2.09,-1.184 3.174,-1.79 -3.435,0.209 -8.201,1.999 -6.729,0.371 -5.603,2.5 -15.554,6.009 -21.138,11.245 l -0.176,-1.173 c -2.559,3.072 -11.157997,9.174 -11.842997,13.152 l -0.684,0.16 c -1.332,2.254 -2.193,4.81 -3.249,7.129 -1.741,2.967 -2.552,1.142 -2.305,1.607 -3.425,6.945 -5.126,12.78 -6.596,17.566 1.047,1.565 0.025,9.424 0.421,15.714 -1.72,31.063004 21.800997,61.222004 47.509997,68.186004 3.768,1.348 9.373,1.296 14.139,1.435 -5.624,-1.608 -6.351,-0.852 -11.829,-2.762 -3.952,-1.861 -4.818,-3.986 -7.617,-6.415 l 1.108,1.958 c -5.49,-1.943 -3.193,-2.404 -7.659,-3.819 l 1.183,-1.545 c -1.779,-0.135 -4.713,-2.999 -5.515,-4.584 l -1.946,0.077 c -2.339,-2.886 -3.585,-4.965 -3.494,-6.576 l -0.629,1.12 c -0.713,-1.223 -8.603997,-10.822 -4.51,-8.588 -0.760997,-0.695 -1.771997,-1.132 -2.867997,-3.123 l 0.834,-0.953 c -1.97,-2.535 -3.626,-5.784 -3.501,-6.867 1.051,1.42 1.78,1.685 2.502,1.928 -4.975,-12.345 -5.255,-0.68 -9.023,-12.566 l 0.797,-0.064 c -0.611,-0.92 -0.982,-1.92 -1.474,-2.901 l 0.347,-3.458 c -3.582,-4.142 -1.002,-17.611004 -0.485,-24.998004 0.358,-3.004 2.99,-6.201 4.992,-11.216 l -1.219,-0.21 c 2.331,-4.066 13.310997,-16.331 18.395997,-15.7 2.463,-3.094 -0.489,-0.011 -0.971,-0.791 5.41,-5.599 7.112,-3.956 10.763,-4.963 3.938,-2.337 -3.38,0.912 -1.513,-0.891 6.808,-1.739 4.825,-3.953 13.706,-4.836 0.937,0.533 -2.174,0.824 -2.955,1.515 5.672,-2.775 17.949,-2.144 25.924,1.54 9.253,4.324 19.649,17.107 20.059,29.134 l 0.466,0.126 c -0.236,4.781 0.732,10.309 -0.946,15.388 l 1.142,-2.404 c 0.135,3.654 -1.069,5.427 -2.154,8.565 l -1.953,0.976 c -1.598,3.103 0.155,1.97 -0.99,4.439004 -2.495,2.218 -7.571,6.941 -9.195,7.372 -1.186,-0.026 0.803,-1.399 1.064,-1.938 -3.34,2.293 -2.679,3.443 -7.787,4.836 l -0.15,-0.332 c -12.597,5.926 -30.094,-5.818 -29.864,-21.842004 -0.135,1.017 -0.382,0.763 -0.661,1.174 -0.65,-8.245 3.807,-16.526 11.325,-19.907 7.353,-3.64 15.974,-2.146 21.241,2.762 -2.893,-3.79 -8.652,-7.807 -15.477,-7.431 -6.686,0.106 -12.94,4.354 -15.027,8.966 -3.425,2.156 -3.822,8.313 -5.315,9.439 -2.008,14.758 3.777,21.134004 13.563,28.634004 0.789,0.532 0.883,0.832 0.815,1.105 0.005,-0.006 0.005,-0.014 0.011,-0.019 11.545,4.313 23.472,3.267 33.461,-4.742 2.541,-1.979 5.318,-5.346 6.12,-5.393 -1.208,1.817 0.206,0.874 -0.722,2.478 2.532,-4.084 -1.1,-1.662 2.618,-7.053004 l 1.373,1.891004 c -0.51,-3.390004 4.21,-7.507004 3.731,-12.868004 1.083,-1.64 1.208,1.764 0.059,5.536 1.594,-4.185 0.42,-4.857 0.83,-8.31 0.443,1.161 1.024,2.394 1.322,3.619 -1.039,-4.044 1.066,-6.81 1.587,-9.16 -0.513,-0.228 -1.603,1.788 -1.852,-2.989 0.036,-2.075 0.577,-1.088 0.786,-1.598 -0.407,-0.234 -1.476,-1.824 -2.126,-4.875 0.472,-0.717 1.26,1.858 1.901,1.964 -0.412,-2.426 -1.123,-4.275 -1.152,-6.136 -1.874,-3.916 -0.663,0.522 -2.183,-1.681 -1.997,-6.222 1.652,-1.445 1.899,-4.271 z"
         id="path3463"
         inkscape:connector-curvature="0" /><path
         style="fill:#ffffff"
         d="m 134.9238,114.25871 c 0.014,-0.036 0.026,-0.073 0.035,-0.11 -0.026,0.028 -0.036,0.066 -0.035,0.11 z"
         id="path3465"
         inkscape:connector-curvature="0" /><path
         style="fill:#ffffff"
         d="m 119.1018,105.14271 c 1.485,2.017 2.663,4.202 4.559,5.779 -1.364,-2.663 -2.378,-3.763 -4.242,-7.363 z"
         id="path3467"
         inkscape:connector-curvature="0" /><path
         style="fill:#ffffff"
         d="m 122.9288,103.41971 c -0.786,-0.869 -1.251,-1.915 -1.772,-2.957 0.498,1.832 1.518,3.406 2.467,5.007 z"
         id="path3469"
         inkscape:connector-curvature="0" /><path
         style="fill:#ffffff"
         d="m 180.7798,103.31671 c 2.226,-4.185004 3.665,-8.761004 4.269,-13.399004 l -0.332,0.832 c -0.608,4.324 -1.922,8.602 -3.937,12.567004 z"
         id="path3471"
         inkscape:connector-curvature="0" /><path
         style="fill:#ffffff"
         d="m 141.3358,28.411706 c -2.112,0.177 -4.215,0.283 -6.291,0.551 l 0.914,0.125 c 1.528,-0.56 3.756,-0.307 5.377,-0.676 z"
         id="path3473"
         inkscape:connector-curvature="0" /><path
         style="fill:#ffffff"
         d="m 82.946803,59.982706 c 1.647,-3.711 -0.644,-1.025 -0.621,-2.375 0.352,3.259 -2.452,4.524 0.621,2.375 z"
         id="path3475"
         inkscape:connector-curvature="0" /><path
         style="fill:#ffffff"
         d="m 79.820803,67.955706 c -1.957,2.501 -0.9,3.034 -1.107,4.735 0.708,-2.173 0.837,-3.478 1.107,-4.735 z"
         id="path3477"
         inkscape:connector-curvature="0" /></g><g
       style="fill:#ffffff"
       transform="matrix(0.27860168,0,0,0.27860168,113.52536,140.77523)"
       id="g4236"><g
         style="fill:#ffffff"
         id="ubuntu"><g
           style="fill:#ffffff"
           id="g4141"><g
             style="fill:#ffffff"
             id="g4139"><path
               style="fill:#ffffff"
               d="m 168.839,241.198 c 0,-38.117 17.894,-72.05 45.685,-93.896 L 171.988,79.22 c -35.648,25.603 -62.472,62.66 -75.127,105.796 19.811,12.751 32.949,35.031 32.949,60.353 0,24.424 -12.143,45.957 -30.783,58.918 13.606,40.86 40.12,75.838 74.706,100.113 l 39.559,-70.358 c -27.105,-21.838 -44.453,-55.318 -44.453,-92.844 z"
               id="path4137"
               inkscape:connector-curvature="0" /></g></g><g
           style="fill:#ffffff"
           id="g4145"><path
             style="fill:#ffffff"
             d="m 109.704,245.368 c 0,28.484 -23.132,51.592 -51.609,51.592 -28.491,0 -51.606,-23.107 -51.606,-51.592 0,-28.47 23.115,-51.577 51.606,-51.577 28.477,0 51.609,23.107 51.609,51.577 z"
             id="path4143"
             inkscape:connector-curvature="0" /></g><g
           style="fill:#ffffff"
           id="g4151"><g
             style="fill:#ffffff"
             id="g4149"><path
               style="fill:#ffffff"
               d="m 399.494,370.126 c 12.002,0 23.301,2.936 33.23,8.149 30.924,-32.591 50.906,-75.595 54.211,-123.228 l -80.148,-1.551 c -6.171,60.111 -56.954,106.941 -118.677,106.941 -17.084,0 -33.388,-3.594 -48.101,-10.093 l -39.841,69.704 c 26.56,13.069 56.376,20.411 87.941,20.411 13.622,0 26.981,-1.379 39.854,-4.006 2.746,-37.072 33.717,-66.327 71.531,-66.327 z"
               id="path4147"
               inkscape:connector-curvature="0" /></g></g><g
           style="fill:#ffffff"
           id="g4155"><path
             style="fill:#ffffff"
             d="m 451.071,441.847 c 0,28.478 -23.084,51.576 -51.577,51.576 -28.493,0 -51.594,-23.098 -51.594,-51.576 0,-28.5 23.101,-51.592 51.594,-51.592 28.493,0 51.577,23.092 51.577,51.592 z"
             id="path4153"
             inkscape:connector-curvature="0" /></g><g
           style="fill:#ffffff"
           id="g4161"><g
             style="fill:#ffffff"
             id="g4159"><path
               style="fill:#ffffff"
               d="m 438.211,110.152 c -11.677,8.269 -25.968,13.163 -41.399,13.163 -39.637,0 -71.73,-32.102 -71.73,-71.715 0,-2.104 0.094,-4.139 0.25,-6.181 -12.05,-2.307 -24.503,-3.491 -37.222,-3.491 -31.859,0 -61.988,7.498 -88.689,20.777 l 39.607,69.75 c 14.979,-6.748 31.593,-10.544 49.082,-10.544 61.177,0 111.601,46.074 118.491,105.414 l 80.147,-2.447 C 483.209,181.12 465.487,141.372 438.211,110.152 Z"
               id="path4157"
               inkscape:connector-curvature="0" /></g></g><g
           style="fill:#ffffff"
           id="g4165"><path
             style="fill:#ffffff"
             d="m 448.374,51.601 c 0,28.492 -23.038,51.592 -51.561,51.592 -28.491,0 -51.592,-23.1 -51.592,-51.592 C 345.22,23.107 368.321,0 396.812,0 c 28.523,0 51.562,23.107 51.562,51.601 z"
             id="path4163"
             inkscape:connector-curvature="0" /></g></g><g
         style="fill:#ffffff"
         id="g4168" /><g
         style="fill:#ffffff"
         id="g4170" /><g
         style="fill:#ffffff"
         id="g4172" /><g
         style="fill:#ffffff"
         id="g4174" /><g
         style="fill:#ffffff"
         id="g4176" /><g
         style="fill:#ffffff"
         id="g4178" /><g
         style="fill:#ffffff"
         id="g4180" /><g
         style="fill:#ffffff"
         id="g4182" /><g
         style="fill:#ffffff"
         id="g4184" /><g
         style="fill:#ffffff"
         id="g4186" /><g
         style="fill:#ffffff"
         id="g4188" /><g
         style="fill:#ffffff"
         id="g4190" /><g
         style="fill:#ffffff"
         id="g4192" /><g
         style="fill:#ffffff"
         id="g4194" /><g
         style="fill:#ffffff"
         id="g4196" /></g></g><g
     id="g3489" /><g
     id="g3491" /><g
     id="g3493" /><g
     id="g3495" /><g
     id="g3497" /><g
     id="g3499" /><g
     id="g3501" /><g
     id="g3503" /><g
     id="g3505" /><g
     id="g3507" /><g
     id="g3509" /><g
     id="g3511" /><g
     id="g3513" /><g
     id="g3515" /><g
     id="g3517" /></svg>