<?xml version="1.0" encoding="UTF-8" standalone="no"?>
<svg
   xmlns:dc="http://purl.org/dc/elements/1.1/"
   xmlns:cc="http://creativecommons.org/ns#"
   xmlns:rdf="http://www.w3.org/1999/02/22-rdf-syntax-ns#"
   xmlns:svg="http://www.w3.org/2000/svg"
   xmlns="http://www.w3.org/2000/svg"
   xmlns:sodipodi="http://sodipodi.sourceforge.net/DTD/sodipodi-0.dtd"
   xmlns:inkscape="http://www.inkscape.org/namespaces/inkscape"
   xml:space="preserve"
   style="enable-background:new 0 0 512.001 512.001;"
   viewBox="0 0 512.001 512.001"
   y="0px"
   x="0px"
   id="Capa_1"
   version="1.1"
   sodipodi:docname="user-friendly.svg"
   inkscape:version="0.92.2 (5c3e80d, 2017-08-06)"><sodipodi:namedview
     pagecolor="#ffffff"
     bordercolor="#666666"
     borderopacity="1"
     objecttolerance="10"
     gridtolerance="10"
     guidetolerance="10"
     inkscape:pageopacity="0"
     inkscape:pageshadow="2"
     inkscape:window-width="1920"
     inkscape:window-height="1017"
     id="namedview2605"
     showgrid="false"
     inkscape:zoom="1.3037256"
     inkscape:cx="195.99131"
     inkscape:cy="211.24165"
     inkscape:window-x="-8"
     inkscape:window-y="-8"
     inkscape:window-maximized="1"
     inkscape:current-layer="Capa_1" /><metadata
     id="metadata2709"><rdf:RDF><cc:Work
         rdf:about=""><dc:format>image/svg+xml</dc:format><dc:type
           rdf:resource="http://purl.org/dc/dcmitype/StillImage" /><dc:title /></cc:Work></rdf:RDF></metadata><defs
     id="defs2707" /><g
     id="g2648" /><g
     style="fill:#ffffff"
     transform="matrix(1.1367003,0,0,1.1367003,-34.994799,-86.812977)"
     id="g3260"><g
       style="fill:#ffffff"
       id="g2666"><g
         style="fill:#ffffff"
         id="g2664"><path
           style="fill:#ffffff"
           d="M 105.705,241.468 H 45.586 c -8.3,0 -15.03,6.729 -15.03,15.03 V 496.97 c 0,8.3 6.729,15.03 15.03,15.03 h 60.118 c 8.3,0 15.03,-6.729 15.03,-15.03 V 256.497 c 0,-8.3 -6.728,-15.029 -15.029,-15.029 z"
           id="path2662"
           inkscape:connector-curvature="0" /></g></g><g
       style="fill:#ffffff"
       id="g2672"><g
         style="fill:#ffffff"
         id="g2670"><path
           style="fill:#ffffff"
           d="m 481.145,281.308 c -2.651,-23.315 -24.43,-39.84 -47.895,-39.84 H 316.075 c 9.958,-17.831 15.303,-68.264 15.066,-88.866 -0.393,-34.102 -28.634,-61.43 -62.737,-61.43 h -12.402 c -8.307,0 -15.03,6.722 -15.03,15.03 0,34.755 -13.533,97.487 -39.056,123.011 -17.179,17.179 -31.865,23.404 -51.122,33.028 v 225.518 c 29.483,9.827 66.917,24.242 123.974,24.242 h 98.316 c 32.395,0 57.625,-30.003 45.072,-61.703 19.125,-5.21 33.229,-22.75 33.229,-43.504 0,-5.857 -1.13,-11.463 -3.17,-16.615 32.229,-8.781 44.092,-48.576 21.723,-73.563 8.218,-9.181 12.75,-21.739 11.207,-35.308 z"
           id="path2668"
           inkscape:connector-curvature="0" /></g></g></g><g
     id="g2674" /><g
     id="g2676" /><g
     id="g2678" /><g
     id="g2680" /><g
     id="g2682" /><g
     id="g2684" /><g
     id="g2686" /><g
     id="g2688" /><g
     id="g2690" /><g
     id="g2692" /><g
     id="g2694" /><g
     id="g2696" /><g
     id="g2698" /><g
     id="g2700" /><g
     id="g2702" /></svg>