<?xml version="1.0" encoding="UTF-8" standalone="no"?>
<svg
   xmlns:i="http://ns.adobe.com/AdobeIllustrator/10.0/"
   xmlns:dc="http://purl.org/dc/elements/1.1/"
   xmlns:cc="http://creativecommons.org/ns#"
   xmlns:rdf="http://www.w3.org/1999/02/22-rdf-syntax-ns#"
   xmlns:svg="http://www.w3.org/2000/svg"
   xmlns="http://www.w3.org/2000/svg"
   xmlns:xlink="http://www.w3.org/1999/xlink"
   id="svg8"
   version="1.1"
   viewBox="0 0 151.78494 151.78502"
   height="151.78502mm"
   width="151.78494mm">
  <defs
     id="defs2">
    <linearGradient
       id="linearGradient4380">
      <stop
         id="stop4382"
         style="stop-color:#000000"
         offset="0" />
      <stop
         id="stop4384"
         style="stop-color:#000000;stop-opacity:0"
         offset="1" />
    </linearGradient>
    <linearGradient
       id="linearGradient3694">
      <stop
         id="stop3702"
         style="stop-color:#b7b7b7"
         offset="0" />
      <stop
         id="stop3698"
         style="stop-color:#000000"
         offset="1" />
    </linearGradient>
    <linearGradient
       id="linearGradient3743">
      <stop
         id="stop3745"
         style="stop-color:#ffffff"
         offset="0" />
      <stop
         id="stop3751"
         style="stop-color:#7fd4ee"
         offset="0.5" />
      <stop
         id="stop3747"
         style="stop-color:#00aade"
         offset="1" />
    </linearGradient>
    <linearGradient
       id="linearGradient3652">
      <stop
         id="stop3654"
         style="stop-color:#ffffff"
         offset="0" />
      <stop
         id="stop3662"
         style="stop-color:#d5e2ec"
         offset="0.49903482" />
      <stop
         id="stop3656"
         style="stop-color:#d5e2ec"
         offset="1" />
    </linearGradient>
    <filter
       style="color-interpolation-filters:sRGB"
       id="filter3729">
      <feGaussianBlur
         stdDeviation="6.4154088"
         id="feGaussianBlur3731" />
    </filter>
    <linearGradient
       x1="965.02625"
       y1="17.489901"
       x2="1557.8665"
       y2="663.80927"
       id="linearGradient3737"
       xlink:href="#linearGradient3652"
       gradientUnits="userSpaceOnUse"
       gradientTransform="translate(-1581.6355,147.78233)" />
    <linearGradient
       x1="33.526711"
       y1="441.98093"
       x2="159.24117"
       y2="581.41302"
       id="linearGradient3966"
       xlink:href="#linearGradient3743"
       gradientUnits="userSpaceOnUse" />
    <linearGradient
       x1="245.51741"
       y1="426.95151"
       x2="305.39166"
       y2="531.48969"
       id="linearGradient3968"
       xlink:href="#linearGradient3743"
       gradientUnits="userSpaceOnUse"
       gradientTransform="translate(-0.38239847,2.6767893)" />
    <linearGradient
       x1="601.53467"
       y1="434.94836"
       x2="668.81775"
       y2="543.35834"
       id="linearGradient3970"
       xlink:href="#linearGradient3743"
       gradientUnits="userSpaceOnUse" />
    <linearGradient
       x1="440.52084"
       y1="455.93307"
       x2="486.95523"
       y2="535.30469"
       id="linearGradient3972"
       xlink:href="#linearGradient3743"
       gradientUnits="userSpaceOnUse"
       gradientTransform="translate(-0.50986462,6.1183754)" />
    <linearGradient
       x1="118.25153"
       y1="254.24648"
       x2="291.87143"
       y2="254.24648"
       id="linearGradient4386"
       xlink:href="#linearGradient4380"
       gradientUnits="userSpaceOnUse" />
    <filter
       style="color-interpolation-filters:sRGB"
       id="filter4631">
      <feGaussianBlur
         id="feGaussianBlur4633"
         stdDeviation="2.3336003" />
    </filter>
    <linearGradient
       x1="174.28104"
       y1="164.16707"
       x2="236.40213"
       y2="253.70575"
       id="linearGradient4162"
       xlink:href="#linearGradient3694"
       gradientUnits="userSpaceOnUse"
       gradientTransform="matrix(3.7524926,0,0,3.7524926,-424.92228,-686.03042)" />
    <filter
       style="color-interpolation-filters:sRGB"
       id="filter4223">
      <feGaussianBlur
         id="feGaussianBlur4225"
         stdDeviation="4.6672006" />
    </filter>
    <filter
       style="color-interpolation-filters:sRGB"
       id="filter4266">
      <feGaussianBlur
         id="feGaussianBlur4268"
         stdDeviation="1.308628" />
    </filter>
  </defs>
  <metadata
     id="metadata5">
    <rdf:RDF>
      <cc:Work
         rdf:about="">
        <dc:format>image/svg+xml</dc:format>
        <dc:type
           rdf:resource="http://purl.org/dc/dcmitype/StillImage" />
        <dc:title></dc:title>
      </cc:Work>
    </rdf:RDF>
  </metadata>
  <g
     transform="translate(-57.039112,-84.785225)"
     id="layer1">
    <g
       id="g2514">
      <g
         id="g2420"
         style="fill:#ffffff">
        <path
           id="rect1607"
           d="m 69.066241,161.22438 h 51.291599 c 6.66303,0 12.02713,5.3641 12.02713,12.02713 v 51.2916 c 0,6.66303 -5.3641,12.02713 -12.02713,12.02713 H 69.066241 c -6.663029,0 -12.027129,-5.3641 -12.027129,-12.02713 v -51.2916 c 0,-6.66303 5.3641,-12.02713 12.027129,-12.02713 z"
           style="opacity:1;fill:#ffffff;fill-opacity:1;fill-rule:evenodd;stroke:none;stroke-width:0.97139496;stroke-linecap:round;stroke-linejoin:miter;stroke-miterlimit:4;stroke-dasharray:none;stroke-dashoffset:0;stroke-opacity:1" />
        <g
           id="g1432"
           style="fill:#72be64;fill-opacity:1"
           transform="matrix(0.59655002,0,0,0.59655002,68.773779,166.54968)">
          <path
             id="path1408"
             d="m 51.986,57.297 c -1.797,0.025 0.34,0.926 2.686,1.287 0.648,-0.506 1.236,-1.018 1.76,-1.516 -1.461,0.358 -2.948,0.366 -4.446,0.229"
             i:knockout="Off"
             style="fill:#72be64;fill-opacity:1" />
          <path
             id="path1410"
             d="m 61.631,54.893 c 1.07,-1.477 1.85,-3.094 2.125,-4.766 -0.24,1.192 -0.887,2.221 -1.496,3.307 -3.359,2.115 -0.316,-1.256 -0.002,-2.537 -3.612,4.546 -0.496,2.726 -0.627,3.996"
             i:knockout="Off"
             style="fill:#72be64;fill-opacity:1" />
          <path
             id="path1412"
             d="m 65.191,45.629 c 0.217,-3.236 -0.637,-2.213 -0.924,-0.978 0.335,0.174 0.6,2.281 0.924,0.978"
             i:knockout="Off"
             style="fill:#72be64;fill-opacity:1" />
          <path
             id="path1414"
             d="m 45.172,1.399 c 0.959,0.172 2.072,0.304 1.916,0.533 1.049,-0.23 1.287,-0.442 -1.916,-0.533"
             i:knockout="Off"
             style="fill:#72be64;fill-opacity:1" />
          <path
             id="path1416"
             d="M 47.088,1.932 46.41,2.072 47.041,2.016 47.088,1.932"
             i:knockout="Off"
             style="fill:#72be64;fill-opacity:1" />
          <path
             id="path1418"
             d="m 76.992,46.856 c 0.107,2.906 -0.85,4.316 -1.713,6.812 l -1.553,0.776 c -1.271,2.468 0.123,1.567 -0.787,3.53 -1.984,1.764 -6.021,5.52 -7.313,5.863 -0.943,-0.021 0.639,-1.113 0.846,-1.541 -2.656,1.824 -2.131,2.738 -6.193,3.846 L 60.16,65.878 C 50.142,70.591 36.226,61.251 36.409,48.507 c -0.107,0.809 -0.304,0.607 -0.526,0.934 -0.517,-6.557 3.028,-13.143 9.007,-15.832 5.848,-2.895 12.704,-1.707 16.893,2.197 -2.301,-3.014 -6.881,-6.209 -12.309,-5.91 -5.317,0.084 -10.291,3.463 -11.951,7.131 -2.724,1.715 -3.04,6.611 -4.227,7.507 -1.597,11.737 3.004,16.808 10.787,22.773 1.225,0.826 0.345,0.951 0.511,1.58 -2.586,-1.211 -4.954,-3.039 -6.901,-5.277 1.033,1.512 2.148,2.982 3.589,4.137 -2.438,-0.826 -5.695,-5.908 -6.646,-6.115 4.203,7.525 17.052,13.197 23.78,10.383 -3.113,0.115 -7.068,0.064 -10.566,-1.229 -1.469,-0.756 -3.467,-2.322 -3.11,-2.615 9.182,3.43 18.667,2.598 26.612,-3.771 2.021,-1.574 4.229,-4.252 4.867,-4.289 -0.961,1.445 0.164,0.695 -0.574,1.971 2.014,-3.248 -0.875,-1.322 2.082,-5.609 l 1.092,1.504 c -0.406,-2.696 3.348,-5.97 2.967,-10.234 0.861,-1.304 0.961,1.403 0.047,4.403 1.268,-3.328 0.334,-3.863 0.66,-6.609 0.352,0.923 0.814,1.904 1.051,2.878 -0.826,-3.216 0.848,-5.416 1.262,-7.285 -0.408,-0.181 -1.275,1.422 -1.473,-2.377 0.029,-1.65 0.459,-0.865 0.625,-1.271 -0.324,-0.186 -1.174,-1.451 -1.691,-3.877 0.375,-0.57 1.002,1.478 1.512,1.562 -0.328,-1.929 -0.893,-3.4 -0.916,-4.88 -1.49,-3.114 -0.527,0.415 -1.736,-1.337 -1.586,-4.947 1.316,-1.148 1.512,-3.396 2.404,3.483 3.775,8.881 4.404,11.117 -0.48,-2.726 -1.256,-5.367 -2.203,-7.922 0.73,0.307 -1.176,-5.609 0.949,-1.691 C 83.519,18.706 76.074,10.902 69.225,7.24 70.063,8.007 71.121,8.97 70.741,9.121 67.335,7.093 67.934,6.935 67.446,6.078 64.671,4.949 64.489,6.169 62.651,6.08 57.421,3.306 56.413,3.601 51.6,1.863 l 0.219,1.023 c -3.465,-1.154 -4.037,0.438 -7.782,0.004 -0.228,-0.178 1.2,-0.644 2.375,-0.815 -3.35,0.442 -3.193,-0.66 -6.471,0.122 0.808,-0.567 1.662,-0.942 2.524,-1.424 -2.732,0.166 -6.522,1.59 -5.352,0.295 -4.456,1.988 -12.37,4.779 -16.811,8.943 l -0.14,-0.933 c -2.035,2.443 -8.874,7.296 -9.419,10.46 l -0.544,0.127 c -1.059,1.793 -1.744,3.825 -2.584,5.67 -1.385,2.36 -2.03,0.908 -1.833,1.278 -2.724,5.523 -4.077,10.164 -5.246,13.97 0.833,1.245 0.02,7.495 0.335,12.497 -1.368,24.704 17.338,48.69 37.785,54.228 2.997,1.072 7.454,1.031 11.245,1.141 -4.473,-1.279 -5.051,-0.678 -9.408,-2.197 -3.143,-1.48 -3.832,-3.17 -6.058,-5.102 l 0.881,1.557 c -4.366,-1.545 -2.539,-1.912 -6.091,-3.037 l 0.941,-1.229 C 28.751,98.334 26.418,96.056 25.78,94.795 l -1.548,0.061 c -1.86,-2.295 -2.851,-3.949 -2.779,-5.23 l -0.5,0.891 c -0.567,-0.973 -6.843,-8.607 -3.587,-6.83 -0.605,-0.553 -1.409,-0.9 -2.281,-2.484 l 0.663,-0.758 c -1.567,-2.016 -2.884,-4.6 -2.784,-5.461 0.836,1.129 1.416,1.34 1.99,1.533 -3.957,-9.818 -4.179,-0.541 -7.176,-9.994 L 8.412,66.472 C 7.926,65.74 7.631,64.945 7.24,64.165 l 0.276,-2.75 C 4.667,58.121 6.719,47.409 7.13,41.534 7.415,39.145 9.508,36.602 11.1,32.614 l -0.97,-0.167 c 1.854,-3.234 10.586,-12.988 14.63,-12.486 1.959,-2.461 -0.389,-0.009 -0.772,-0.629 4.303,-4.453 5.656,-3.146 8.56,-3.947 3.132,-1.859 -2.688,0.725 -1.203,-0.709 5.414,-1.383 3.837,-3.144 10.9,-3.846 0.745,0.424 -1.729,0.655 -2.35,1.205 4.511,-2.207 14.275,-1.705 20.617,1.225 7.359,3.439 15.627,13.605 15.953,23.17 l 0.371,0.1 c -0.188,3.802 0.582,8.199 -0.752,12.238 l 0.908,-1.912"
             i:knockout="Off"
             style="fill:#72be64;fill-opacity:1" />
          <path
             id="path1420"
             d="m 32.372,59.764 -0.252,1.26 c 1.181,1.604 2.118,3.342 3.626,4.596 -1.085,-2.118 -1.891,-2.993 -3.374,-5.856"
             i:knockout="Off"
             style="fill:#72be64;fill-opacity:1" />
          <path
             id="path1422"
             d="m 35.164,59.654 c -0.625,-0.691 -0.995,-1.523 -1.409,-2.352 0.396,1.457 1.207,2.709 1.962,3.982 l -0.553,-1.63"
             i:knockout="Off"
             style="fill:#72be64;fill-opacity:1" />
          <path
             id="path1424"
             d="m 84.568,48.916 -0.264,0.662 c -0.484,3.438 -1.529,6.84 -3.131,9.994 1.77,-3.328 2.915,-6.968 3.395,-10.656"
             i:knockout="Off"
             style="fill:#72be64;fill-opacity:1" />
          <path
             id="path1426"
             d="M 45.527,0.537 C 46.742,0.092 48.514,0.293 49.803,0 48.123,0.141 46.451,0.225 44.8,0.438 l 0.727,0.099"
             i:knockout="Off"
             style="fill:#72be64;fill-opacity:1" />
          <path
             id="path1428"
             d="m 2.872,23.219 c 0.28,2.592 -1.95,3.598 0.494,1.889 1.31,-2.951 -0.512,-0.815 -0.494,-1.889"
             i:knockout="Off"
             style="fill:#72be64;fill-opacity:1" />
          <path
             id="path1430"
             d="M 0,35.215 C 0.563,33.487 0.665,32.449 0.88,31.449 -0.676,33.438 0.164,33.862 0,35.215"
             i:knockout="Off"
             style="fill:#72be64;fill-opacity:1" />
        </g>
      </g>
      <g
         id="g846"
         transform="matrix(0.99318474,0,0,0.99318474,142.56797,171.49876)">
        <path
           id="path829"
           d="M 0.137305,12.516764 34.475943,32.782907 0.111,53.064578 0.1373,12.516764 Z"
           style="fill:#ffffff" />
        <path
           id="path831"
           d="m 66.710728,32.984939 c 0,-17.958251 -14.552595,-32.533061 -32.483468,-32.533061 -10.353785,0 -19.541215,4.883362 -25.490844,12.447863 l 4.066633,2.57884 C 17.879003,9.265938 25.63456,5.312 34.276853,5.312 c 15.275461,0 27.67294,12.397477 27.67294,27.672939 0,15.275463 -12.397477,27.672939 -27.67294,27.672939 -8.617371,0 -16.347696,-3.935183 -21.424211,-10.116988 L 8.786009,53.11973 C 14.737051,60.652916 23.89848,65.518 34.22726,65.518 c 17.930875,0 32.483468,-14.57481 32.483468,-32.533061 z"
           style="fill:#ffffff" />
        <path
           id="path833"
           d="m 54.114086,33.034532 c 0,-10.977528 -8.9093,-19.886825 -19.886826,-19.886825 -5.844447,0 -11.089563,2.527972 -14.729145,6.546286 l 4.215412,2.628434 c 2.711356,-2.677847 6.418076,-4.314599 10.513733,-4.314599 8.294739,0 15.026704,6.776399 15.026704,15.12589 0,8.349493 -6.731965,15.12589 -15.026704,15.12589 -4.172,2e-6 -7.938938,-1.696885 -10.662512,-4.463377 l -4.066633,2.57884 c 3.639582,4.018315 8.884698,6.546288 14.729145,6.546287 10.977528,0 19.886826,-8.909298 19.886826,-19.886826 z"
           style="fill:#ffffff" />
      </g>
      <g
         id="g1117"
         transform="matrix(10.869565,0,0,10.869565,-1960.6349,-2883.3253)">
        <g
           id="g1496"
           transform="translate(18.294065,-5.0161146)">
          <path
             style="clip-rule:evenodd;fill:#ffffff;fill-rule:evenodd;stroke-width:0.26458332"
             id="XMLID_9_"
             class="st0"
             d="m 170.69216,283.87666 c 0.0529,0 0.10583,-0.0265 0.18521,-0.0265 0.0264,0 0.0529,0 0.0794,-0.0264 0.0529,0 0.13229,-0.0265 0.18521,-0.0529 0.0265,0 0.0529,0 0.0794,-0.0265 0.0794,-0.0265 0.15875,-0.0529 0.23813,-0.0794 0.0265,0 0.0265,-0.0265 0.0529,-0.0265 0.0529,-0.0265 0.13229,-0.0529 0.1852,-0.0794 0.0265,0 0.0529,-0.0265 0.0794,-0.0529 0.0529,-0.0265 0.10583,-0.0529 0.13229,-0.0794 0.0265,-0.0265 0.0529,-0.0265 0.0794,-0.0529 0.0529,-0.0264 0.10583,-0.0794 0.15875,-0.10583 0.0265,0 0.0265,-0.0265 0.0529,-0.0265 0.0529,-0.0529 0.13229,-0.10583 0.18521,-0.15875 0.0265,-0.0265 0.0265,-0.0265 0.0529,-0.0529 0.0529,-0.0529 0.0794,-0.0794 0.10583,-0.1323 0.0265,-0.0265 0.0265,-0.0529 0.0529,-0.0794 0.0265,-0.0529 0.0529,-0.0794 0.10583,-0.13229 0.0265,-0.0265 0.0265,-0.0529 0.0529,-0.0794 0.0265,-0.0529 0.0794,-0.13229 0.10583,-0.18521 0,0 0,-0.0265 0.0265,-0.0265 0.0265,-0.0794 0.0794,-0.1323 0.10583,-0.21167 0,-0.0265 0.0265,-0.0529 0.0265,-0.0794 0,-0.0265 0.0265,-0.0529 0.0265,-0.10583 l -1.42875,-1.5875 -1.53458,1.74625 0.74083,-1.48167 -0.37042,-0.66145 -2.30187,2.64583 c 0,0.0265 0.0265,0.0265 0.0265,0.0529 0.0529,0.0529 0.0794,0.13229 0.13229,0.1852 0.0265,0.0265 0.0529,0.0529 0.0794,0.0794 0.0529,0.0529 0.10584,0.10583 0.15875,0.15875 0.0265,0.0265 0.0529,0.0529 0.0794,0.0794 0.0529,0.0529 0.10583,0.10584 0.18521,0.1323 0.0265,0.0264 0.0265,0.0264 0.0529,0.0529 0.0794,0.0529 0.15875,0.10584 0.26459,0.15875 0.0264,0 0.0264,0.0265 0.0529,0.0265 0.0794,0.0265 0.15875,0.0794 0.23813,0.10583 0.0265,0 0.0529,0.0265 0.10583,0.0265 0.0529,0.0265 0.13229,0.0529 0.21167,0.0529 0.0265,0 0.0794,0.0265 0.10583,0.0265 0.0794,0.0265 0.13229,0.0265 0.21167,0.0529 0.0265,0 0.0529,0 0.10583,0.0265 0.10583,0 0.21167,0.0265 0.3175,0.0265 0.0794,0 0.18521,0 0.26458,0 -0.10583,0 -0.0794,0 -0.0529,-0.0265 z" />
          <g
             id="XMLID_5_"
             transform="matrix(0.26458333,0,0,0.26458333,135.26445,277.73833)">
            <path
               style="clip-rule:evenodd;fill:none;fill-rule:evenodd;stroke:#ffffff;stroke-width:2;stroke-miterlimit:10;stroke-opacity:1"
               id="XMLID_3_"
               class="st1"
               d="m 143.2,12.8 c 0,5.8 -4.7,10.5 -10.5,10.5 -5.8,0 -10.5,-4.7 -10.5,-10.5 0,-5.8 4.7,-10.5 10.5,-10.5 5.8,0 10.5,4.7 10.5,10.5 z" />
          </g>
        </g>
      </g>
      <g
         id="g1582"
         transform="translate(134.77074,-157.25242)"
         style="stroke:#ffffff;stroke-opacity:1">
        <path
           d="m 7.985248,257.99263 c -0.35058,0.19195 2.79602,2.25396 8.69266,4.68159 5.89703,2.42762 14.04888,8.57359 13.41017,9.56671 -1.91535,2.69775 -3.04267,5.93199 -2.26297,11.45852 0.14062,0.97281 -2.88998,2.66297 -2.67006,4.13081 0.18391,1.11687 3.38626,-1.1096 3.73569,-0.67051 0.2138,0.78814 -1.71133,4.77967 -0.93392,5.06474 0.56859,0.16896 5.56455,-4.75161 5.85498,-4.66962 8.24305,2.49199 18.97368,0.61773 19.18134,0.5388 -0.0195,-0.0433 7.70894,3.63674 8.38136,3.19689 1.6962,-1.83681 -3.21346,-4.42574 -2.39467,-5.45985 0.35901,-0.54139 5.98505,2.03173 6.26207,1.32904 0.40307,-1.2165 -2.61192,-3.76922 -3.06518,-4.52593 -0.39426,-0.69772 -0.47233,-1.82139 0.5388,-2.52638 1.01151,-0.70499 11.35343,-4.66147 10.91971,-7.72282 -0.74982,-5.56254 -13.12674,-5.92557 -13.32636,-6.39378 -0.0939,-0.21993 0.5549,-7.95424 -3.05321,-6.52549 -2.22149,0.82684 -0.41907,5.75661 -0.27538,6.39378 0.13256,0.5866 -0.98623,0.52089 -1.19734,0.26342 -0.47127,-0.57549 -2.02015,-5.71858 -3.85543,-4.80133 -2.57398,1.41918 -0.15709,5.85498 -0.6705,5.99866 -0.95366,0.53296 -0.89992,1.837 -1.6643,2.89756 -1.26056,1.80654 -10.69634,-0.84503 -13.74543,-1.02971 -2.23223,-0.13181 -4.36033,1.6937 -4.56186,1.46075 -2.71805,-2.72188 -8.33911,-7.46554 -14.49975,-9.03989 -3.45484,-0.93757 -8.59429,-3.65044 -8.80042,-3.61596 z m 62.92005,4.98092 c -0.20581,0.0888 -1.0362,4.36662 -0.63459,4.56185 0.35594,0.26629 0.97147,-4.31309 0.64656,-4.54988 -0.005,-0.006 -0.005,-0.0148 -0.012,-0.012 z m 3.05321,0.58669 c -0.46683,-0.009 -2.95617,3.96961 -2.3827,4.39423 0.35594,0.26629 2.57111,-4.23168 2.41862,-4.38225 -0.0106,-0.009 -0.0208,-0.0117 -0.0359,-0.012 z m -12.06916,4.84922 c 0.58976,0 1.06564,0.53784 1.06564,1.20931 0,0.67147 -0.47588,1.22128 -1.06564,1.22128 -0.58975,0 -1.06563,-0.54981 -1.06563,-1.22128 0,-0.67147 0.47588,-1.20931 1.06563,-1.20931 z m -2.39467,0.73037 c 0.45365,1.95827 1.15577,2.57686 3.2807,2.51441 -2.70464,2.48012 -4.3424,-1.76382 -3.2807,-2.51441 z m 5.72327,5.12461 c 0.16833,-0.0137 0.29718,0.0128 0.37118,0.0838 1.06553,0.38621 -4.5722,2.41824 -4.60975,2.13126 -0.0567,-0.1978 3.06024,-2.11951 4.23857,-2.21507 z m 0.69445,1.29312 c 0.0583,-0.005 0.11261,0.0137 0.15566,0.0359 1.00576,0.99925 -3.18415,3.2148 -3.13702,3.13702 -0.33765,-0.20403 2.10655,-3.10507 2.98136,-3.17294 z"
           id="path14"
           style="fill:#ffffff;fill-rule:evenodd;stroke:#ffffff;stroke-width:0.10273917;stroke-opacity:1" />
        <path
           d="m 59.650145,277.54617 a 10.177205,2.1085293 0 0 1 -2.341953,2.66329"
           id="path1578"
           style="opacity:1;fill:none;fill-opacity:1;fill-rule:evenodd;stroke:#ffffff;stroke-width:1.15500009;stroke-linecap:round;stroke-linejoin:miter;stroke-miterlimit:4;stroke-dasharray:none;stroke-dashoffset:0;stroke-opacity:1" />
      </g>
    </g>
  </g>
  <style
     type="text/css"
     id="style895">
	.st0{fill-rule:evenodd;clip-rule:evenodd;fill:#DC682E;}
	.st1{fill-rule:evenodd;clip-rule:evenodd;fill:none;stroke:#DC682E;stroke-width:2;stroke-miterlimit:10;}
	.text{fill:#FFFFFF;}
</style>
</svg>
