<?xml version="1.0" encoding="UTF-8" standalone="no"?>
<svg
   xmlns:dc="http://purl.org/dc/elements/1.1/"
   xmlns:cc="http://creativecommons.org/ns#"
   xmlns:rdf="http://www.w3.org/1999/02/22-rdf-syntax-ns#"
   xmlns:svg="http://www.w3.org/2000/svg"
   xmlns="http://www.w3.org/2000/svg"
   xmlns:sodipodi="http://sodipodi.sourceforge.net/DTD/sodipodi-0.dtd"
   xmlns:inkscape="http://www.inkscape.org/namespaces/inkscape"
   id="svg8"
   version="1.1"
   viewBox="0 0 105.85326 92.863556"
   height="92.863556mm"
   width="105.85326mm"
   sodipodi:docname="guide-header.svg"
   inkscape:version="0.92.2 (5c3e80d, 2017-08-06)">
  <sodipodi:namedview
     pagecolor="#ffffff"
     bordercolor="#666666"
     borderopacity="1"
     objecttolerance="10"
     gridtolerance="10"
     guidetolerance="10"
     inkscape:pageopacity="0"
     inkscape:pageshadow="2"
     inkscape:window-width="1920"
     inkscape:window-height="1017"
     id="namedview7778"
     showgrid="false"
     inkscape:zoom="1.7446972"
     inkscape:cx="207.22197"
     inkscape:cy="155.80063"
     inkscape:window-x="-8"
     inkscape:window-y="-8"
     inkscape:window-maximized="1"
     inkscape:current-layer="svg8" />
  <defs
     id="defs2">
    <clipPath
       clipPathUnits="userSpaceOnUse"
       id="clipPath991">
      <path
         d="M 0,800 H 800 V 0 H 0 Z"
         id="path989" />
    </clipPath>
    <clipPath
       clipPathUnits="userSpaceOnUse"
       id="clipPath1123">
      <path
         d="M 0,800 H 800 V 0 H 0 Z"
         id="path1121" />
    </clipPath>
    <clipPath
       clipPathUnits="userSpaceOnUse"
       id="clipPath1143">
      <path
         d="m 104.6,539.64 h 118.063 c -5.715,11.239 -0.587,21.217 -0.587,21.217 v 0 l -118.063,1.474 z"
         id="path1141" />
    </clipPath>
    <clipPath
       clipPathUnits="userSpaceOnUse"
       id="clipPath1167">
      <path
         d="M 0,800 H 800 V 0 H 0 Z"
         id="path1165" />
    </clipPath>
    <clipPath
       clipPathUnits="userSpaceOnUse"
       id="clipPath1183">
      <path
         d="m 99.779,598.566 h 117.902 c -5.708,11.238 -0.584,21.218 -0.584,21.218 v 0 l -117.904,1.472 z"
         id="path1181" />
    </clipPath>
    <clipPath
       clipPathUnits="userSpaceOnUse"
       id="clipPath1207">
      <path
         d="M 0,800 H 800 V 0 H 0 Z"
         id="path1205" />
    </clipPath>
    <clipPath
       clipPathUnits="userSpaceOnUse"
       id="clipPath1223">
      <path
         d="M 96.7378,580.462 H 225.172 V 566.999 H 96.7378 Z"
         id="path1221" />
    </clipPath>
    <clipPath
       clipPathUnits="userSpaceOnUse"
       id="clipPath1245">
      <path
         d="m 117.952,639.322 h 86.007 v -13.464 h -86.007 z"
         id="path1243" />
    </clipPath>
    <clipPath
       clipPathUnits="userSpaceOnUse"
       id="clipPath1273">
      <path
         d="m 359.168,632.81 h 12.484 V 526.693 h -12.484 z"
         id="path1271" />
    </clipPath>
    <clipPath
       clipPathUnits="userSpaceOnUse"
       id="clipPath1295">
      <path
         d="m 387.2,661.077 h 12.482 V 526.693 H 387.2 Z"
         id="path1293" />
    </clipPath>
    <clipPath
       clipPathUnits="userSpaceOnUse"
       id="clipPath1315">
      <path
         d="m 421.469,637.889 h 15.416 v -23.254 h -15.416 z"
         id="path1313" />
    </clipPath>
    <clipPath
       clipPathUnits="userSpaceOnUse"
       id="clipPath1329">
      <path
         d="m 415.227,653.21 h 12.486 V 526.693 h -12.486 z"
         id="path1327" />
    </clipPath>
    <clipPath
       clipPathUnits="userSpaceOnUse"
       id="clipPath1813">
      <path
         d="m 406.113,148.501 -5.124,-7.979 -0.062,-4.924 h 7.456 c 1.187,3.373 8.201,3.076 14.326,1.644 v 0 c 6.125,-1.432 19.953,-2.251 29.484,-2.969 v 0 c 9.536,-0.716 20.105,0 20.105,0 v 0 l -14.915,10.544 -17.783,6.039 -16.891,2.151 z"
         id="path1811" />
    </clipPath>
    <clipPath
       clipPathUnits="userSpaceOnUse"
       id="clipPath1845">
      <path
         d="M 0,800 H 800 V 0 H 0 Z"
         id="path1843" />
    </clipPath>
    <clipPath
       clipPathUnits="userSpaceOnUse"
       id="clipPath1857">
      <path
         d="m 458.58,141.838 13.718,-7.565 -10.866,55.483 -9.239,4.943 z"
         id="path1855" />
    </clipPath>
    <clipPath
       clipPathUnits="userSpaceOnUse"
       id="clipPath1889">
      <path
         d="M 0,800 H 800 V 0 H 0 Z"
         id="path1887" />
    </clipPath>
    <clipPath
       clipPathUnits="userSpaceOnUse"
       id="clipPath1937">
      <path
         d="m 592.035,98.648 h 102.762 c -4.975,9.797 -0.51,18.494 -0.51,18.494 v 0 l -102.764,1.284 z"
         id="path1935" />
    </clipPath>
    <clipPath
       clipPathUnits="userSpaceOnUse"
       id="clipPath1961">
      <path
         d="M 0,800 H 800 V 0 H 0 Z"
         id="path1959" />
    </clipPath>
    <clipPath
       clipPathUnits="userSpaceOnUse"
       id="clipPath1989">
      <path
         d="m 587.334,236.713 h 46.775 V 127.058 h -46.775 z"
         id="path1987" />
    </clipPath>
    <linearGradient
       x1="0"
       y1="0"
       x2="1"
       y2="0"
       gradientUnits="userSpaceOnUse"
       gradientTransform="matrix(41.422638,108.31116,108.31116,-41.422638,590.23438,128.89355)"
       spreadMethod="pad"
       id="linearGradient1999">
      <stop
         style="stop-opacity:1;stop-color:#ffffff"
         offset="0"
         id="stop1995" />
      <stop
         style="stop-opacity:1;stop-color:#ffffff"
         offset="1"
         id="stop1997" />
    </linearGradient>
    <clipPath
       clipPathUnits="userSpaceOnUse"
       id="clipPath2033">
      <path
         d="m 641.529,216.114 h 9.905 v -93.619 h -9.905 z"
         id="path2031" />
    </clipPath>
    <linearGradient
       x1="0"
       y1="0"
       x2="1"
       y2="0"
       gradientUnits="userSpaceOnUse"
       gradientTransform="matrix(-4.1e-6,93.619141,93.619141,4.1e-6,646.48145,122.49512)"
       spreadMethod="pad"
       id="linearGradient2043">
      <stop
         style="stop-opacity:1;stop-color:#ffffff"
         offset="0"
         id="stop2039" />
      <stop
         style="stop-opacity:1;stop-color:#ffffff"
         offset="1"
         id="stop2041" />
    </linearGradient>
    <clipPath
       clipPathUnits="userSpaceOnUse"
       id="clipPath2071">
      <path
         d="m 668.158,216.114 h 9.906 v -93.619 h -9.906 z"
         id="path2069" />
    </clipPath>
    <linearGradient
       x1="0"
       y1="0"
       x2="1"
       y2="0"
       gradientUnits="userSpaceOnUse"
       gradientTransform="matrix(-4.1e-6,93.619141,93.619141,4.1e-6,673.11133,122.49512)"
       spreadMethod="pad"
       id="linearGradient2081">
      <stop
         style="stop-opacity:1;stop-color:#ffffff"
         offset="0"
         id="stop2077" />
      <stop
         style="stop-opacity:1;stop-color:#ffffff"
         offset="1"
         id="stop2079" />
    </linearGradient>
    <clipPath
       id="clipPath1216-6-1"
       clipPathUnits="userSpaceOnUse">
      <path
         d="m -931.9292,472.44899 c 52.80448,20.70412 54.53055,59.13782 55.50529,106.43539 l 0.15083,126.1941 c 0,65.3703 57.35011,118.3509 128.00402,118.3509 h 174.40926 l 42.00595,-0.0439 -0.0753,-35.85346 v -195.6762 c 0,-65.37038 -57.14012,-120.08451 -127.86841,-119.28048 l -73.68258,-0.0152 z m 130.41731,223.52939 c 157.32888,216.79567 257.96015,-194.86265 162.29261,-105.279 -4.4242,4.4691 -6.43539,9.2888 -6.43539,15.4852 v 87.6993 c 0,0 -37.0538,-14.10806 -37.0538,-30 v -57.6993 c 0,-6.1964 -2.06146,-11.0161 -6.48567,-15.4852 -4.44838,-4.4936 -9.053,-6.5359 -15.28406,-6.5359 -6.10313,0 -10.7951,2.0525 -15.23379,6.5359 -4.42415,4.4691 -6.48567,9.2888 -6.48567,15.4852 v 87.6993 c 0,0 -37.0538,-14.10806 -37.0538,-30 v -57.6993 c 118.30431,195.10611 -34.29163,-221.39314 -38.26043,89.7938 z"
         id="path1218-5-7"
         style="display:inline;fill:#ffffff;fill-opacity:1;fill-rule:evenodd" />
    </clipPath>
    <radialGradient
       id="radialGradient7806"
       spreadMethod="pad"
       gradientTransform="matrix(606.15247,0,0,-606.15247,400,400)"
       gradientUnits="userSpaceOnUse"
       r="1"
       cy="0"
       cx="0"
       fy="0"
       fx="0">
      <stop
         id="stop7802"
         offset="0"
         style="stop-opacity:1;stop-color:#414042" />
      <stop
         id="stop7804"
         offset="1"
         style="stop-opacity:1;stop-color:#231f20" />
    </radialGradient>
    <clipPath
       id="clipPath7860"
       clipPathUnits="userSpaceOnUse">
      <path
         inkscape:connector-curvature="0"
         id="path7858"
         d="M 0,800 H 800 V 0 H 0 Z" />
    </clipPath>
    <clipPath
       id="clipPath7902"
       clipPathUnits="userSpaceOnUse">
      <path
         inkscape:connector-curvature="0"
         id="path7900"
         d="M 0,800 H 800 V 0 H 0 Z" />
    </clipPath>
    <clipPath
       id="clipPath7926"
       clipPathUnits="userSpaceOnUse">
      <path
         inkscape:connector-curvature="0"
         id="path7924"
         d="M 0,800 H 800 V 0 H 0 Z" />
    </clipPath>
    <clipPath
       id="clipPath7964"
       clipPathUnits="userSpaceOnUse">
      <path
         inkscape:connector-curvature="0"
         id="path7962"
         d="M 0,800 H 800 V 0 H 0 Z" />
    </clipPath>
    <clipPath
       id="clipPath7984"
       clipPathUnits="userSpaceOnUse">
      <path
         inkscape:connector-curvature="0"
         id="path7982"
         d="M 0,800 H 800 V 0 H 0 Z" />
    </clipPath>
    <clipPath
       id="clipPath8034"
       clipPathUnits="userSpaceOnUse">
      <path
         inkscape:connector-curvature="0"
         id="path8032"
         d="M 0,800 H 800 V 0 H 0 Z" />
    </clipPath>
    <clipPath
       id="clipPath8066"
       clipPathUnits="userSpaceOnUse">
      <path
         inkscape:connector-curvature="0"
         id="path8064"
         d="M 0,800 H 800 V 0 H 0 Z" />
    </clipPath>
  </defs>
  <metadata
     id="metadata5">
    <rdf:RDF>
      <cc:Work
         rdf:about="">
        <dc:format>image/svg+xml</dc:format>
        <dc:type
           rdf:resource="http://purl.org/dc/dcmitype/StillImage" />
        <dc:title></dc:title>
      </cc:Work>
    </rdf:RDF>
  </metadata>
  <g
     id="g8811"
     transform="matrix(1.240067,0,0,1.240067,-399.11139,-84.014226)"
     style="fill:#ffffff;fill-opacity:0.56744187">
    <path
       inkscape:connector-curvature="0"
       id="path7882"
       style="fill:#ffffff;fill-opacity:0.56744187;fill-rule:nonzero;stroke:none;stroke-width:0.35277778"
       d="m 363.32765,89.719238 h -9.11225 v 26.856972 h 9.11225 z m -9.11225,32.299272 h 9.11225 v -2.92805 h -9.11225 z m 0,-37.179952 h 9.11225 v 2.366433 h -9.11225 z" />
    <path
       inkscape:connector-curvature="0"
       id="path7884"
       style="fill:#ffffff;fill-opacity:0.56744187;fill-rule:nonzero;stroke:none;stroke-width:0.35277778"
       d="m 390.8355,89.719238 h -9.11225 v 26.856972 h 9.11225 z m -9.11225,32.299272 h 9.11225 v -2.92805 h -9.11225 z m 0,-37.179952 h 9.11225 v 2.366433 h -9.11225 z" />
    <path
       d="m 348.54898,116.6311 4.80201,-26.424114 -8.96514,-1.629481 -4.80236,26.424115 z m -9.41493,0.84455 -0.52353,2.88078 8.9655,1.62913 0.52352,-2.88078 z m 5.70124,-31.371822 0.42333,-2.328334 8.96514,1.629481 -0.42298,2.328333 z"
       style="fill:#ffffff;fill-opacity:0.56744187;fill-rule:nonzero;stroke:none;stroke-width:0.35277778"
       id="path7888"
       inkscape:connector-curvature="0" />
    <path
       inkscape:connector-curvature="0"
       id="path7890"
       style="fill:#ffffff;fill-opacity:0.56744187;fill-rule:nonzero;stroke:none;stroke-width:0.35277778"
       d="m 366.0518,121.98571 h 12.9473 v -1.08868 h -12.9473 z m 0,-21.13598 h 12.9473 v -1.901472 h -12.9473 z m 12.9473,2.93017 h -12.9473 v 16.08737 h 12.9473 z M 366.0518,88.208644 h 12.9473 v 9.315097 h -12.9473 z" />
    <path
       inkscape:connector-curvature="0"
       id="path7904"
       style="fill:#ffffff;fill-opacity:0.56744187;fill-rule:nonzero;stroke:none;stroke-width:0.35277778"
       d="M 394.77779,126.60992 H 334.2764 v -2.18299 h 60.50139 z" />
  </g>
</svg>
