<?xml version="1.0" encoding="UTF-8" standalone="no"?>
<svg
   xmlns:dc="http://purl.org/dc/elements/1.1/"
   xmlns:cc="http://creativecommons.org/ns#"
   xmlns:rdf="http://www.w3.org/1999/02/22-rdf-syntax-ns#"
   xmlns:svg="http://www.w3.org/2000/svg"
   xmlns="http://www.w3.org/2000/svg"
   id="svg860"
   version="1.1"
   viewBox="0 0 105.85326 92.863556"
   height="92.863556mm"
   width="105.85326mm">
  <defs
     id="defs854">
    <clipPath
       id="clipPath1216-6-1"
       clipPathUnits="userSpaceOnUse">
      <path
         d="m -931.9292,472.44899 c 52.80448,20.70412 54.53055,59.13782 55.50529,106.43539 l 0.15083,126.1941 c 0,65.3703 57.35011,118.3509 128.00402,118.3509 h 174.40926 l 42.00595,-0.0439 -0.0753,-35.85346 v -195.6762 c 0,-65.37038 -57.14012,-120.08451 -127.86841,-119.28048 l -73.68258,-0.0152 z m 95.37457,43.69029 c 0,0 35.04274,13.04825 35.04274,28 v 151.8391 c 0,24.0543 16.41575,42.7351 35.64605,42.7351 l 113.74438,1.2463 c 7.55441,0.0828 12.85188,35.5058 12.85188,35.5058 l 37.78074,-35.5058 -0.72692,-133.7752 c 0,-6.1964 -2.01123,-11.0161 -6.43539,-15.4852 -4.43869,-4.4834 -9.1809,-6.5359 -15.28406,-6.5359 -6.23114,0 -10.83568,2.0423 -15.28407,6.5359 -4.4242,4.4691 -6.43539,9.2888 -6.43539,15.4852 v 87.6993 c 0,0 -37.0538,-14.10806 -37.0538,-30 v -57.6993 c 0,-6.1964 -2.06146,-11.0161 -6.48567,-15.4852 -4.44838,-4.4936 -9.053,-6.5359 -15.28406,-6.5359 -6.10313,0 -10.7951,2.0525 -15.23379,6.5359 -4.42415,4.4691 -6.48567,9.2888 -6.48567,15.4852 v 87.6993 c 0,0 -37.0538,-14.10806 -37.0538,-30 v -57.6993 c -5e-5,-16.1663 5.98606,-30.5064 17.3454,-41.9809 11.36502,-11.4807 41.42786,-21.3957 41.42786,-21.3957 0,0 29.1976,9.8682 40.22122,20.4907 11.05594,-10.6401 40.32177,-20.4907 40.32177,-20.4907 0,0 30.06296,9.915 41.42785,21.3957 11.35953,11.4745 17.3454,25.8146 17.3454,41.9809 l 0.15083,170.011 c -14.97261,2.49161 -36.47771,-36.2358 -36.47771,-36.2358 -26.32494,-0.49229 -37.78074,36.2358 -37.78074,36.2358 0,0 -128.15432,-0.22809 -133.08196,-1.3836 -16.54064,-4.01474 -30.78137,-8.8157 -42.83557,-20.7139 -14.10304,-14.0484 -21.36752,-31.4206 -21.36752,-51.2318 V 516.13929 Z"
         id="path1218-5-7"
         style="display:inline;fill:#ffffff;fill-opacity:1;fill-rule:evenodd" />
    </clipPath>
  </defs>
  <metadata
     id="metadata857">
    <rdf:RDF>
      <cc:Work
         rdf:about="">
        <dc:format>image/svg+xml</dc:format>
        <dc:type
           rdf:resource="http://purl.org/dc/dcmitype/StillImage" />
        <dc:title></dc:title>
      </cc:Work>
    </rdf:RDF>
  </metadata>
  <g
     transform="translate(15.129012,-66.871793)"
     id="layer1">
    <g
       transform="translate(-109.54798,52.704271)"
       id="g2964">
      <path
         id="path1222-8-7"
         d="m 118.26153,24.973987 0.10795,58.986026 13.95512,11.943114 41.6869,-0.341503 18.83545,-0.108204 0.92944,-31.807633 -1.29235,-21.160922 -6.92519,-10.653368 -20.6548,2.832277 -14.79686,-2.385721 -12.05051,9.175141 -0.58498,31.491768 12.91466,-0.161711 0.8104,-24.870398 7.22041,-0.123915 0.37714,25.001174 12.70668,0.252674 0.21254,-25.849732 8.39139,-0.0487 -0.096,29.077096 -8.22003,7.448891 -35.15888,-0.569729 -6.90951,-8.407992 -0.20888,-49.517849 z"
         style="fill:#ffffff;fill-opacity:1;fill-rule:evenodd;stroke:none;stroke-width:0.26458332px;stroke-linecap:butt;stroke-linejoin:miter;stroke-opacity:1" />
      <path
         transform="matrix(0.26458332,0,0,0.26458332,340.99189,-110.8346)"
         clip-path="url(#clipPath1216-6-1)"
         d="M -987.9292,391.93918 V 539.49394 903.9392 h 512.00003 V 391.93918 Z"
         id="path5060-0-5"
         style="fill:#72be64;fill-opacity:1;fill-rule:nonzero;stroke:none" />
    </g>
  </g>
</svg>
