<?xml version="1.0" encoding="UTF-8" standalone="no"?>
<svg
   xmlns:dc="http://purl.org/dc/elements/1.1/"
   xmlns:cc="http://creativecommons.org/ns#"
   xmlns:rdf="http://www.w3.org/1999/02/22-rdf-syntax-ns#"
   xmlns:svg="http://www.w3.org/2000/svg"
   xmlns="http://www.w3.org/2000/svg"
   xmlns:sodipodi="http://sodipodi.sourceforge.net/DTD/sodipodi-0.dtd"
   xmlns:inkscape="http://www.inkscape.org/namespaces/inkscape"
   id="svg2176"
   version="1.1"
   viewBox="0 0 367.45447 75.758316"
   height="75.758316mm"
   width="367.45447mm"
   sodipodi:docname="redesign-logo-text.svg"
   inkscape:version="0.92.2 (5c3e80d, 2017-08-06)">
  <sodipodi:namedview
     pagecolor="#ffffff"
     bordercolor="#666666"
     borderopacity="1"
     objecttolerance="10"
     gridtolerance="10"
     guidetolerance="10"
     inkscape:pageopacity="0"
     inkscape:pageshadow="2"
     inkscape:window-width="1920"
     inkscape:window-height="1017"
     id="namedview2217"
     showgrid="false"
     inkscape:zoom="0.61708725"
     inkscape:cx="650.97341"
     inkscape:cy="215.19569"
     inkscape:window-x="-8"
     inkscape:window-y="-8"
     inkscape:window-maximized="1"
     inkscape:current-layer="svg2176" />
  <defs
     id="defs2170">
    <clipPath
       id="clipPath1216-6-3"
       clipPathUnits="userSpaceOnUse">
      <path
         d="m -931.9292,472.44899 v 71.39269 h 30.46757 c 21.2755,0 25.03772,14.7144 25.03772,35.0427 l 0.15083,126.1941 c 0,65.3703 57.35011,118.3509 128.00402,118.3509 h 174.40926 c 22.36391,0 41.93063,-14.1313 41.93063,-35.8974 v -195.6762 c 0,-65.37038 -57.32145,-118.35098 -128.05431,-118.35098 h -73.40373 v -0.20111 z m 95.37457,43.69029 h 35.04274 v 179.8391 c 0,24.0543 16.41575,42.7351 35.64605,42.7351 l 119.5073,0.5027 c 24.91942,0 44.34389,-17.1884 44.34389,-37.5565 l -0.20111,-95.4751 c 0,-6.1964 -2.01123,-11.0161 -6.43539,-15.4852 -4.43869,-4.4834 -9.1809,-6.5359 -15.28406,-6.5359 -6.23114,0 -10.83568,2.0423 -15.28407,6.5359 -4.4242,4.4691 -6.43539,9.2888 -6.43539,15.4852 v 81.6993 h -37.0538 v -81.6993 c 0,-6.1964 -2.06146,-11.0161 -6.48567,-15.4852 -4.44838,-4.4936 -9.053,-6.5359 -15.28406,-6.5359 -6.10313,0 -10.7951,2.0525 -15.23379,6.5359 -4.42415,4.4691 -6.48567,9.2888 -6.48567,15.4852 v 81.6993 h -37.0538 v -81.6993 c -5e-5,-16.1663 5.98606,-30.5064 17.3454,-41.9809 11.36502,-11.4807 25.50861,-17.3957 41.42786,-17.3957 15.61956,0 29.1976,5.8682 40.22122,16.4907 11.05594,-10.6401 24.69574,-16.4907 40.32177,-16.4907 15.9192,0 30.06296,5.915 41.42785,17.3957 11.35953,11.4745 17.3454,25.8146 17.3454,41.9809 l 0.15083,102.011 c -1.75138,17.0792 -8.98991,32.2318 -21.31725,44.897 h -0.0503 c -14.4943,14.7561 -32.4407,22.373 -52.8909,22.373 -23.17589,-0.80677 -128.15432,0.50191 -133.08196,-0.6536 -16.54064,-4.01474 -30.78137,-8.8157 -42.83557,-20.7139 -14.10304,-14.0484 -21.36752,-31.4206 -21.36752,-51.2318 V 516.13929 Z"
         id="path1218-5-25"
         style="display:inline;fill:#ffffff;fill-opacity:1;fill-rule:evenodd" />
    </clipPath>
    <clipPath
       id="clipPath1216-6"
       clipPathUnits="userSpaceOnUse">
      <path
         d="m -931.9292,472.44899 c 52.80448,20.70412 54.53055,59.13782 55.50529,106.43539 l 0.15083,126.1941 c 0,65.3703 57.35011,118.3509 128.00402,118.3509 h 174.40926 l 42.00595,-0.0439 -0.0753,-35.85346 v -195.6762 c 0,-65.37038 -57.14012,-120.08451 -127.86841,-119.28048 l -73.68258,-0.0152 z m 95.37457,43.69029 h 35.04274 v 179.8391 c 0,24.0543 16.41575,42.7351 35.64605,42.7351 l 119.5073,0.5027 c 24.91942,0 44.34389,-17.1884 44.34389,-37.5565 l -0.20111,-95.4751 c 0,-6.1964 -2.01123,-11.0161 -6.43539,-15.4852 -4.43869,-4.4834 -9.1809,-6.5359 -15.28406,-6.5359 -6.23114,0 -10.83568,2.0423 -15.28407,6.5359 -4.4242,4.4691 -6.43539,9.2888 -6.43539,15.4852 v 81.6993 h -37.0538 v -81.6993 c 0,-6.1964 -2.06146,-11.0161 -6.48567,-15.4852 -4.44838,-4.4936 -9.053,-6.5359 -15.28406,-6.5359 -6.10313,0 -10.7951,2.0525 -15.23379,6.5359 -4.42415,4.4691 -6.48567,9.2888 -6.48567,15.4852 v 81.6993 h -37.0538 v -81.6993 c -5e-5,-16.1663 5.98606,-30.5064 17.3454,-41.9809 11.36502,-11.4807 25.50861,-17.3957 41.42786,-17.3957 15.61956,0 29.1976,5.8682 40.22122,16.4907 11.05594,-10.6401 24.69574,-16.4907 40.32177,-16.4907 15.9192,0 30.06296,5.915 41.42785,17.3957 11.35953,11.4745 17.3454,25.8146 17.3454,41.9809 l 0.15083,102.011 c -1.75138,17.0792 -8.98991,32.2318 -21.31725,44.897 h -0.0503 c -14.4943,14.7561 -32.4407,22.373 -52.8909,22.373 -23.17589,-0.80677 -128.15432,0.50191 -133.08196,-0.6536 -16.54064,-4.01474 -30.78137,-8.8157 -42.83557,-20.7139 -14.10304,-14.0484 -21.36752,-31.4206 -21.36752,-51.2318 V 516.13929 Z"
         id="path1218-5"
         style="display:inline;fill:#ffffff;fill-opacity:1;fill-rule:evenodd"
         inkscape:connector-curvature="0"
         sodipodi:nodetypes="cccscccscccccscccccscsccscscsccccscsccccccccscc" />
    </clipPath>
  </defs>
  <metadata
     id="metadata2173">
    <rdf:RDF>
      <cc:Work
         rdf:about="">
        <dc:format>image/svg+xml</dc:format>
        <dc:type
           rdf:resource="http://purl.org/dc/dcmitype/StillImage" />
        <dc:title />
      </cc:Work>
    </rdf:RDF>
  </metadata>
  <rect
     style="opacity:1;fill:#ff0000;fill-opacity:1;fill-rule:evenodd;stroke:none;stroke-width:1.15499997;stroke-linecap:round;stroke-linejoin:miter;stroke-miterlimit:4;stroke-dasharray:none;stroke-dashoffset:0;stroke-opacity:1"
     id="rect2762"
     width="958.04956"
     height="512.98096"
     x="-391.70889"
     y="-217.72017" />
  <flowRoot
     xml:space="preserve"
     id="flowRoot843"
     style="font-style:normal;font-variant:normal;font-weight:bold;font-stretch:normal;font-size:1.63601851px;line-height:125%;font-family:'Fashion Fetish';-inkscape-font-specification:'Fashion Fetish, Bold';font-variant-ligatures:normal;font-variant-caps:normal;font-variant-numeric:normal;font-feature-settings:normal;text-align:start;letter-spacing:0px;word-spacing:0px;writing-mode:lr-tb;text-anchor:start;fill:#ffffff;fill-opacity:1;stroke:none;stroke-width:1px;stroke-linecap:butt;stroke-linejoin:miter;stroke-opacity:1"
     transform="matrix(363.8022,0,0,511.75966,483423.08,-26928.816)"><flowRegion
       id="flowRegion845"
       style="font-style:normal;font-variant:normal;font-weight:bold;font-stretch:normal;font-size:1.63601851px;font-family:'Fashion Fetish';-inkscape-font-specification:'Fashion Fetish, Bold';font-variant-ligatures:normal;font-variant-caps:normal;font-variant-numeric:normal;font-feature-settings:normal;text-align:start;writing-mode:lr-tb;text-anchor:start;fill:#ffffff"><rect
         id="rect847"
         width="1160"
         height="145.71428"
         x="-1328.5714"
         y="51.091114"
         style="font-style:normal;font-variant:normal;font-weight:bold;font-stretch:normal;font-size:1.63601851px;font-family:'Fashion Fetish';-inkscape-font-specification:'Fashion Fetish, Bold';font-variant-ligatures:normal;font-variant-caps:normal;font-variant-numeric:normal;font-feature-settings:normal;text-align:start;writing-mode:lr-tb;text-anchor:start;fill:#ffffff" /></flowRegion><flowPara
       style="font-style:normal;font-variant:normal;font-weight:normal;font-stretch:normal;font-size:0.20147684px;font-family:Bahnschrift;-inkscape-font-specification:'Bahnschrift, Normal';font-variant-ligatures:normal;font-variant-caps:normal;font-variant-numeric:normal;font-feature-settings:normal;text-align:start;writing-mode:lr-tb;text-anchor:start"
       id="flowPara849" /></flowRoot>  <flowRoot
     transform="matrix(0.26458333,0,0,0.26458333,-7.3453288e-6,8.377792e-7)"
     style="font-style:normal;font-variant:normal;font-weight:normal;font-stretch:normal;font-size:12px;line-height:125%;font-family:'Times New Roman';-inkscape-font-specification:'Times New Roman,';text-align:start;letter-spacing:0px;word-spacing:0px;writing-mode:lr-tb;text-anchor:start;fill:#000000;fill-opacity:1;stroke:none;stroke-width:1px;stroke-linecap:butt;stroke-linejoin:miter;stroke-opacity:1"
     id="flowRoot2788"
     xml:space="preserve"><flowRegion
       id="flowRegion2790"><rect
         y="51086.332"
         x="480200"
         height="2300"
         width="11600"
         id="rect2792" /></flowRegion><flowPara
       id="flowPara2794" /></flowRoot>  <text
     id="text2798"
     y="75.307602"
     x="91.261513"
     style="font-style:normal;font-variant:normal;font-weight:normal;font-stretch:normal;font-size:61.53646469px;line-height:125%;font-family:Bahnschrift;-inkscape-font-specification:'Bahnschrift, Normal';font-variant-ligatures:normal;font-variant-caps:normal;font-variant-numeric:normal;font-feature-settings:normal;text-align:start;letter-spacing:0px;word-spacing:0px;writing-mode:lr-tb;text-anchor:start;fill:#ffffff;fill-opacity:1;stroke:none;stroke-width:0.07692058px;stroke-linecap:butt;stroke-linejoin:miter;stroke-opacity:1"
     xml:space="preserve">LINUX MINT</text>
  <g
     transform="matrix(0.2179376,0,0,0.2179376,204.23232,-101.83214)"
     id="g2768">
    <path
       sodipodi:nodetypes="ccccccccccccccccccccccccc"
       inkscape:connector-curvature="0"
       id="path1222-8-5"
       d="m -836.76479,505.21111 0.40802,222.93932 52.74375,45.13933 157.55678,-1.29072 61.50683,-12.35944 13.19514,-108.26735 -4.88447,-79.97829 -26.17394,-40.2647 -78.06541,10.70467 -55.92515,-9.0169 -45.54521,34.6777 -2.21094,119.02401 48.81128,-0.61119 3.06294,-93.99836 27.28975,-0.46834 1.42539,94.49263 48.02525,0.95499 0.8033,-97.69978 31.7155,-0.18407 -0.36279,109.89769 -31.06782,28.15329 -132.88397,-2.1533 -26.11469,-31.77824 -0.78946,-187.15408 z"
       style="fill:#ffffff;fill-opacity:1;fill-rule:evenodd;stroke:none;stroke-width:1px;stroke-linecap:butt;stroke-linejoin:miter;stroke-opacity:1" />
    <path
       sodipodi:nodetypes="cccccc"
       inkscape:connector-curvature="0"
       transform="translate(5.0507628,-8.0812205)"
       clip-path="url(#clipPath1216-6)"
       d="M -987.9292,391.93918 V 539.49394 903.9392 h 512.00003 V 391.93918 Z"
       id="path5060-0-9"
       style="fill:#72be64;fill-opacity:1;fill-rule:nonzero;stroke:none" />
  </g>
</svg>
